<svg version="1" xmlns="http://www.w3.org/2000/svg" width="682.667" height="682.667" viewBox="0 0 512.000000 512.000000"><path d="M14 155.3v6.3l9.1 1.1c9.9 1.1 12.8 2.6 16.7 8.3l2.2 3.3v82c0 81.3 0 82-2.1 85.7-3.1 5.4-6.9 7.2-16.8 7.9l-8.6.6-.3 6.7-.3 6.8H84v-14h-5.2c-6.2 0-11.3-2.3-14.2-6.3-2.1-2.8-2.1-3.6-2.3-85l-.2-82.2 3.7 10c2.1 5.5 17.5 47.7 34.2 93.8l30.5 83.8 8.4-.3 8.5-.3 19.3-54c10.7-29.7 25.9-72 33.8-94l14.4-40-.2 82.7c-.2 81.9-.2 82.7-2.3 85.5-2.9 4-8 6.3-14.1 6.3H193v14h80v-13.7l-8.3-.5c-9.9-.5-14.5-2.8-17.3-8.6-1.8-3.5-1.9-7.8-1.9-85.2v-81.5l2.4-3.9c3-4.8 8.2-7.2 17.9-8.2l7.2-.7V149h-33.4c-25.8 0-33.5.3-33.8 1.2-.3.7-13.9 38.8-30.3 84.5-16.4 45.8-30.2 83.3-30.5 83.3-.4 0-14.4-37.9-31.2-84.3l-30.5-84.2-34.7-.3L14 149v6.3zM295 155.4v6.3l7.8.7c10 .9 15.2 3.3 18.3 8.2l2.4 3.9v82c0 80.7 0 82.1-2 85.5-3.2 5.3-7.7 7.4-17.5 8l-8.5.5v13h88v-13l-8.6-.6c-10.1-.7-13.7-2.4-17.1-8.3-2.2-4-2.3-4.9-2.6-31.2l-.3-27 12.5-10.2 12.5-10.2 2.4 3.3c1.3 1.7 13.3 18.9 26.7 38.2 13.4 19.2 25.8 36.9 27.7 39.3 12 14.8 21 18.6 47.1 19.8l14.2.7V350h-3.3c-5.5 0-13-4.6-20.4-12.3-5.3-5.7-71-95.4-72.1-98.5-.4-1.2 48.1-55.5 56.6-63.4 8.4-7.9 16-12.5 21.9-13.4l4.3-.6V149h-67v12.7l5.6.6c7.4.8 9.8 2.9 9 8-1.5 9-5.3 14.1-45.5 60l-32.2 36.8.3-45.8c.3-44 .4-46 2.4-49.8 2.8-5.5 8.3-8.2 18.5-9.1l7.9-.7V149h-89v6.4z"/></svg>