<?xml version="1.0" standalone="no"?>
<!DOCTYPE svg PUBLIC "-//W3C//DTD SVG 20010904//EN"
 "http://www.w3.org/TR/2001/REC-SVG-20010904/DTD/svg10.dtd">
<svg version="1.0" xmlns="http://www.w3.org/2000/svg"
 width="512.000000pt" height="512.000000pt" viewBox="0 0 512.000000 512.000000"
 preserveAspectRatio="xMidYMid meet">

<g transform="translate(0.000000,512.000000) scale(0.100000,-0.100000)"
fill="#000000" stroke="none">
<path d="M550 3390 l0 -50 41 0 c110 0 182 -49 194 -132 3 -24 5 -336 3 -693
-3 -608 -4 -653 -21 -678 -28 -43 -74 -66 -149 -73 l-68 -7 0 -48 0 -49 290 0
290 0 0 49 0 49 -47 7 c-61 9 -98 28 -120 62 -17 25 -18 78 -20 723 l-2 695
44 -120 c24 -66 154 -421 289 -790 l244 -670 69 -3 70 -3 278 778 c153 428
282 785 286 793 11 21 11 -1315 -1 -1364 -13 -58 -45 -84 -118 -98 l-62 -12 0
-48 0 -48 335 0 335 0 0 49 0 48 -62 7 c-73 7 -124 31 -152 69 -21 28 -21 39
-24 704 -2 658 -2 677 18 717 26 55 65 76 150 83 l70 6 0 48 0 49 -279 0 -279
0 -11 -27 c-10 -26 -298 -828 -434 -1210 -34 -95 -64 -173 -68 -173 -3 0 -79
204 -169 453 -90 248 -205 565 -255 702 l-91 250 -287 3 -287 2 0 -50z"/>
<path d="M2900 3391 l0 -48 63 -5 c76 -6 121 -28 147 -71 19 -31 20 -55 20
-717 0 -669 -1 -686 -20 -718 -24 -40 -65 -58 -148 -68 l-62 -7 0 -48 0 -49
360 0 360 0 0 49 0 49 -65 7 c-76 8 -122 35 -148 85 -15 31 -17 62 -15 259 l3
225 100 82 c55 45 103 80 107 78 4 -3 107 -150 230 -327 264 -382 320 -444
423 -477 51 -16 105 -24 198 -27 l127 -6 0 51 c0 48 -2 52 -27 57 -53 11 -110
46 -166 103 -48 50 -607 814 -607 831 0 12 438 497 492 546 57 50 139 95 176
95 20 0 22 5 22 50 l0 50 -275 0 -275 0 0 -50 0 -50 38 0 c81 0 103 -50 58
-138 -32 -63 -45 -79 -354 -433 l-267 -306 -3 378 c-2 364 -1 381 18 419 25
50 66 71 147 78 l63 5 0 48 0 49 -360 0 -360 0 0 -49z"/>
</g>
</svg>
