<svg xmlns="http://www.w3.org/2000/svg" width="682.667" height="682.667" viewBox="0 0 512 512"><path d="M55 173v5h4.1c11 0 18.2 4.9 19.4 13.2.3 2.4.5 33.6.3 69.3-.3 60.8-.4 65.3-2.1 67.8-2.8 4.3-7.4 6.6-14.9 7.3l-6.8.7v9.7h58v-9.8l-4.7-.7c-6.1-.9-9.8-2.8-12-6.2-1.7-2.5-1.8-7.8-2-72.3l-.2-69.5 4.4 12 28.9 79 24.4 67 6.9.3 7 .3 27.8-77.8 28.6-79.3c1.1-2.1 1.1 131.5-.1 136.4-1.3 5.8-4.5 8.4-11.8 9.8l-6.2 1.2v9.6h67v-9.7l-6.2-.7c-7.3-.7-12.4-3.1-15.2-6.9-2.1-2.8-2.1-3.9-2.4-70.4-.2-65.8-.2-67.7 1.8-71.7 2.6-5.5 6.5-7.6 15-8.3l7-.6V168h-55.8l-1.1 2.7c-1 2.6-29.8 82.8-43.4 121-3.4 9.5-6.4 17.3-6.8 17.3-.3 0-7.9-20.4-16.9-45.3l-25.5-70.2-9.1-25-28.7-.3L55 168v5zm235-.1v4.8l6.3.5c7.6.6 12.1 2.8 14.7 7.1 1.9 3.1 2 5.5 2 71.7 0 66.9-.1 68.6-2 71.8-2.4 4-6.5 5.8-14.8 6.8l-6.2.7v9.7h72v-9.8l-6.5-.7c-7.6-.8-12.2-3.5-14.8-8.5-1.5-3.1-1.7-6.2-1.5-25.9l.3-22.5 10-8.2c5.5-4.5 10.3-8 10.7-7.8.4.3 10.7 15 23 32.7 26.4 38.2 32 44.4 42.3 47.7 5.1 1.6 10.5 2.4 19.8 2.7l12.7.6v-5.1c0-4.8-.2-5.2-2.7-5.7-5.3-1.1-11-4.6-16.6-10.3-4.8-5-60.7-81.4-60.7-83.1 0-1.2 43.8-49.7 49.2-54.6 5.7-5 13.9-9.5 17.6-9.5 2 0 2.2-.5 2.2-5v-5h-55v10h3.8c8.1 0 10.3 5 5.8 13.8-3.2 6.3-4.5 7.9-35.4 43.3l-26.7 30.6-.3-37.8c-.2-36.4-.1-38.1 1.8-41.9 2.5-5 6.6-7.1 14.7-7.8l6.3-.5V168h-72v4.9z"/></svg>