<svg xmlns="http://www.w3.org/2000/svg" viewBox="0 0 24 24"><path d="M14.23 12.004a2.236 2.236 0 01-2.235 2.236 2.236 2.236 0 01-.001-4.472 2.236 2.236 0 012.236 2.236zm2.648-10.69c-1.346 0-3.107.96-4.888 2.622-1.78-1.653-3.542-2.602-4.887-2.602-.41 0-.783.093-1.106.278-1.375.793-1.683 3.264-.973 6.365C1.98 8.917 0 10.42 0 12.004c0 1.59 1.99 3.097 5.043 4.03-.704 3.113-.39 5.588.988 6.38.32.187.69.275 1.102.275 1.345 0 3.107-.96 4.888-2.624 1.78 1.654 3.542 2.603 4.887 2.603.41 0 .783-.09 1.106-.275 1.374-.792 1.683-3.263.973-6.365C22.02 15.096 24 13.59 24 12.004s-1.99-3.097-5.043-4.032c.704-3.11.39-5.587-.988-6.38a2.167 2.167 0 00-1.092-.278zm-.005 1.09v.006c.225 0 .406.044.558.127.666.382.955 1.835.73 3.704a15.08 15.08 0 01-.25 1.44 23.476 23.476 0 00-3.107-.534A23.892 23.892 0 0012.769 4.7c1.592-1.48 3.087-2.292 4.105-2.295zm-9.77.02c1.012 0 2.514.808 4.11 2.28-.686.72-1.37 1.537-2.02 2.442a22.73 22.73 0 00-3.113.538l-.254-1.42c-.23-1.868.054-3.32.714-3.707.19-.09.4-.127.563-.132zm4.882 3.05c.455.468.91.992 1.36 1.564L12 7.004l-1.36.034a19 19 0 011.345-1.565zM12 8.1l2.202.093 1.183 1.86 1.018 1.946-1.013 1.95-1.18 1.87-2.21.098a27.65 27.65 0 01-2.202-.093l-1.183-1.86-1.018-1.946 1.013-1.954 1.18-1.868L12 8.098zm-3.635.254l-.704 1.16-.635 1.174a20.71 20.71 0 01-.676-1.947l2.015-.386zm7.26 0l2.006.387c-.18.632-.405 1.282-.66 1.933l-.64-1.174-.705-1.146zm3.063.675l1.375.498c1.732.74 2.852 1.708 2.852 2.476s-1.125 1.74-2.857 2.475a15.05 15.05 0 01-1.355.493 23.966 23.966 0 00-1.1-2.98c.45-1.017.81-2.01 1.085-2.964zm-13.395.004c.278.96.645 1.957 1.1 2.98a23.142 23.142 0 00-1.086 2.964l-1.37-.5c-1.732-.737-2.852-1.706-2.852-2.474s1.12-1.742 2.852-2.476c.42-.18.88-.342 1.356-.494zm11.678 4.28c.265.657.49 1.312.676 1.948a20.87 20.87 0 01-2.016.39l.705-1.158.636-1.18zm-9.945.02l.64 1.175.705 1.143-2.006-.386c.18-.63.406-1.282.66-1.933zM17.92 16.32l.254 1.423c.23 1.868-.054 3.32-.714 3.708-.147.09-.338.128-.563.128-1.012 0-2.514-.807-4.11-2.28.686-.72 1.37-1.536 2.02-2.44 1.107-.118 2.154-.3 3.113-.54zm-11.83.01c.96.234 2.006.415 3.107.532.66.905 1.345 1.727 2.035 2.446-1.595 1.483-3.092 2.295-4.11 2.295a1.185 1.185 0 01-.553-.132c-.666-.38-.955-1.834-.73-3.703a14.99 14.99 0 01.25-1.438zm4.56.64l1.345.034 1.36-.034c-.44.572-.895 1.095-1.345 1.565-.455-.47-.91-.993-1.36-1.565z"/></svg>