<svg xmlns="http://www.w3.org/2000/svg" viewBox="0 0 24 24"><path d="M12 0A11.99 11.99 0 000 11.971V12c0 6.64 5.359 12 12 12s12-5.36 12-12S18.64 0 12 0zm0 20.801a8.78 8.78 0 01-8.801-8.75V12a8.78 8.78 0 018.75-8.801H12a8.78 8.78 0 018.801 8.75V12a8.78 8.78 0 01-8.75 8.801H12zm5.44-11.76a2.492 2.492 0 01-2.481 2.479 2.492 2.492 0 01-2.479-2.479c0-1.361 1.12-2.481 2.479-2.481s2.481 1.12 2.481 2.481zm0 5.919c0 1.36-1.12 2.48-2.481 2.48a2.492 2.492 0 01-2.479-2.48c0-1.359 1.12-2.479 2.479-2.479s2.481 1.12 2.481 2.479zm-5.919 0c0 1.36-1.12 2.48-2.479 2.48a2.492 2.492 0 01-2.481-2.48c0-1.359 1.12-2.479 2.481-2.479s2.479 1.12 2.479 2.479zm0-5.919a2.492 2.492 0 01-2.479 2.479 2.492 2.492 0 01-2.481-2.479c0-1.361 1.12-2.481 2.481-2.481s2.479 1.12 2.479 2.481z"/></svg>